<svg width="24" height="24" viewBox="0 0 24 24" fill="none" xmlns="http://www.w3.org/2000/svg">
<path fill-rule="evenodd" clip-rule="evenodd" d="M14.4173 4.77344C14.9065 4.27821 15.57 4 16.2618 4C16.9538 4 17.6174 4.27834 18.1067 4.77378C18.596 5.26922 18.8709 5.94118 18.8709 6.64184C18.8709 7.3425 18.596 8.01446 18.1067 8.5099C18.1032 8.51349 18.0996 8.51704 18.096 8.52056L9.84693 16.608C9.53545 16.9115 9.03995 16.9019 8.7402 16.5865C8.44045 16.2711 8.44996 15.7694 8.76144 15.4658L17.0043 7.38442C17.1972 7.1867 17.3054 6.91992 17.3054 6.64184C17.3054 6.36158 17.1955 6.09279 16.9998 5.89461C16.804 5.69644 16.5386 5.5851 16.2618 5.5851C15.985 5.5851 15.7196 5.69644 15.5239 5.89461L7.12235 14.356C6.68225 14.8018 6.43459 15.4068 6.43459 16.0372C6.43459 16.6678 6.68198 17.2726 7.12235 17.7185C7.56271 18.1644 8.15998 18.4149 8.78275 18.4149C9.40553 18.4149 10.0028 18.1644 10.4432 17.7185L17.7956 10.3077C18.1015 9.99837 18.597 9.9987 18.9025 10.3084C19.208 10.6181 19.2077 11.1199 18.9018 11.4292L11.5501 18.8393C10.8162 19.5825 9.82071 20 8.78275 20C7.7448 20 6.74936 19.5825 6.01541 18.8393C5.28147 18.0962 4.86914 17.0882 4.86914 16.0372C4.86914 14.9862 5.28147 13.9783 6.01541 13.2351L14.4173 4.77344Z" fill="black"/>
</svg>
